# xmcd
#
# Track frame offsets:
#	150
#	16238
#	32448
#	51403
#	71958
#	88936
#	104674
#	121005
#	141000
#	155174
#	173147
#	214435
#
# Disc length: 3165 seconds
#
# Revision: 0
# Processed by: cddbd v1.5.1PL2 Copyright (c) Steve Scherf et al.
# Submitted via: dBpowerAMP V4.0
#
DISCID=b00c5b0c
DTITLE=Bow Wow - Wanted
DYEAR=2005
DGENRE=R&B
TTITLE0=Do You
TTITLE1=Big Dreams
TTITLE2=Let Me Hold You
TTITLE3=Fresh Azimiz
TTITLE4=Caviar
TTITLE5=Like You
TTITLE6=B.O.W
TTITLE7=Go
TTITLE8=Do What It Do
TTITLE9=Is That You (P.Y.T)
TTITLE10=Mo Money
TTITLE11=To My Mama (Bonus)
EXTD=
EXTT0=
EXTT1=
EXTT2=
EXTT3=
EXTT4=
EXTT5=
EXTT6=
EXTT7=
EXTT8=
EXTT9=
EXTT10=
EXTT11=
PLAYORDER=
